<mxfile host="app.diagrams.net" modified="2024-05-22T12:44:58.702Z" agent="Mozilla/5.0 (Windows NT 10.0; Win64; x64) AppleWebKit/537.36 (KHTML, like Gecko) Chrome/121.0.0.0 Safari/537.36" etag="p96PRcUrbQ5l99smjO8m" version="24.4.5" type="device">
  <diagram name="Página-1" id="E5Dl9V_7gFB4zJMGTFZP">
    <mxGraphModel dx="2261" dy="782" grid="1" gridSize="10" guides="1" tooltips="1" connect="1" arrows="1" fold="1" page="1" pageScale="1" pageWidth="827" pageHeight="1169" math="0" shadow="0">
      <root>
        <mxCell id="0" />
        <mxCell id="1" parent="0" />
        <mxCell id="nJSs2wzzEc3q5zwMcev3-3" value="&lt;h1&gt;Atualizar Produto&lt;/h1&gt;" style="text;strokeColor=none;align=center;fillColor=none;html=1;verticalAlign=middle;whiteSpace=wrap;rounded=0;" vertex="1" parent="1">
          <mxGeometry x="-70" y="25" width="330" height="20" as="geometry" />
        </mxCell>
        <mxCell id="nJSs2wzzEc3q5zwMcev3-6" value="Início" style="ellipse;whiteSpace=wrap;html=1;fillColor=#dae8fc;strokeColor=#6c8ebf;" vertex="1" parent="1">
          <mxGeometry x="55" y="70" width="95" height="60" as="geometry" />
        </mxCell>
        <mxCell id="nJSs2wzzEc3q5zwMcev3-8" value="" style="endArrow=classic;html=1;rounded=0;" edge="1" parent="1">
          <mxGeometry width="50" height="50" relative="1" as="geometry">
            <mxPoint x="102" y="130" as="sourcePoint" />
            <mxPoint x="102" y="170" as="targetPoint" />
          </mxGeometry>
        </mxCell>
        <mxCell id="nJSs2wzzEc3q5zwMcev3-9" value="Clicar em produtos" style="rounded=0;whiteSpace=wrap;html=1;fillColor=#dae8fc;strokeColor=#6c8ebf;" vertex="1" parent="1">
          <mxGeometry x="52.5" y="170" width="100" height="50" as="geometry" />
        </mxCell>
        <mxCell id="nJSs2wzzEc3q5zwMcev3-11" value="" style="endArrow=classic;html=1;rounded=0;exitX=0.5;exitY=1;exitDx=0;exitDy=0;" edge="1" parent="1" source="nJSs2wzzEc3q5zwMcev3-9">
          <mxGeometry width="50" height="50" relative="1" as="geometry">
            <mxPoint x="82.5" y="290" as="sourcePoint" />
            <mxPoint x="103" y="260" as="targetPoint" />
          </mxGeometry>
        </mxCell>
        <mxCell id="nJSs2wzzEc3q5zwMcev3-12" value="Escolher produto" style="rounded=0;whiteSpace=wrap;html=1;fillColor=#dae8fc;strokeColor=#6c8ebf;" vertex="1" parent="1">
          <mxGeometry x="51.25" y="260" width="102.5" height="50" as="geometry" />
        </mxCell>
        <mxCell id="nJSs2wzzEc3q5zwMcev3-14" value="" style="endArrow=classic;html=1;rounded=0;exitX=0.5;exitY=1;exitDx=0;exitDy=0;" edge="1" parent="1" source="nJSs2wzzEc3q5zwMcev3-12">
          <mxGeometry width="50" height="50" relative="1" as="geometry">
            <mxPoint x="82.5" y="380" as="sourcePoint" />
            <mxPoint x="103" y="350" as="targetPoint" />
          </mxGeometry>
        </mxCell>
        <mxCell id="nJSs2wzzEc3q5zwMcev3-16" value="Editar produto" style="rounded=0;whiteSpace=wrap;html=1;fillColor=#dae8fc;strokeColor=#6c8ebf;" vertex="1" parent="1">
          <mxGeometry x="53.75" y="350" width="100" height="50" as="geometry" />
        </mxCell>
        <mxCell id="nJSs2wzzEc3q5zwMcev3-18" value="" style="endArrow=classic;html=1;rounded=0;exitX=0.5;exitY=1;exitDx=0;exitDy=0;" edge="1" parent="1" source="nJSs2wzzEc3q5zwMcev3-16">
          <mxGeometry width="50" height="50" relative="1" as="geometry">
            <mxPoint x="82.5" y="490" as="sourcePoint" />
            <mxPoint x="104" y="440" as="targetPoint" />
          </mxGeometry>
        </mxCell>
        <mxCell id="nJSs2wzzEc3q5zwMcev3-19" value="Editar informações" style="rounded=0;whiteSpace=wrap;html=1;fillColor=#dae8fc;strokeColor=#6c8ebf;" vertex="1" parent="1">
          <mxGeometry x="56.25" y="440" width="97.5" height="50" as="geometry" />
        </mxCell>
        <mxCell id="nJSs2wzzEc3q5zwMcev3-21" value="" style="endArrow=classic;html=1;rounded=0;exitX=0.5;exitY=1;exitDx=0;exitDy=0;" edge="1" parent="1" source="nJSs2wzzEc3q5zwMcev3-19">
          <mxGeometry width="50" height="50" relative="1" as="geometry">
            <mxPoint x="78.75" y="585" as="sourcePoint" />
            <mxPoint x="106.28571428571422" y="531.1428571428573" as="targetPoint" />
          </mxGeometry>
        </mxCell>
        <mxCell id="nJSs2wzzEc3q5zwMcev3-26" style="edgeStyle=orthogonalEdgeStyle;rounded=0;orthogonalLoop=1;jettySize=auto;html=1;exitX=1;exitY=0.5;exitDx=0;exitDy=0;entryX=1;entryY=0.5;entryDx=0;entryDy=0;" edge="1" parent="1" source="nJSs2wzzEc3q5zwMcev3-23" target="nJSs2wzzEc3q5zwMcev3-16">
          <mxGeometry relative="1" as="geometry" />
        </mxCell>
        <mxCell id="nJSs2wzzEc3q5zwMcev3-27" value="Não" style="edgeLabel;html=1;align=center;verticalAlign=middle;resizable=0;points=[];" vertex="1" connectable="0" parent="nJSs2wzzEc3q5zwMcev3-26">
          <mxGeometry x="-0.0448" y="1" relative="1" as="geometry">
            <mxPoint as="offset" />
          </mxGeometry>
        </mxCell>
        <mxCell id="nJSs2wzzEc3q5zwMcev3-29" value="" style="edgeStyle=orthogonalEdgeStyle;rounded=0;orthogonalLoop=1;jettySize=auto;html=1;" edge="1" parent="1" source="nJSs2wzzEc3q5zwMcev3-23">
          <mxGeometry relative="1" as="geometry">
            <mxPoint x="105" y="680" as="targetPoint" />
          </mxGeometry>
        </mxCell>
        <mxCell id="nJSs2wzzEc3q5zwMcev3-31" value="Sim" style="edgeLabel;html=1;align=center;verticalAlign=middle;resizable=0;points=[];" vertex="1" connectable="0" parent="nJSs2wzzEc3q5zwMcev3-29">
          <mxGeometry x="-0.1952" y="-1" relative="1" as="geometry">
            <mxPoint as="offset" />
          </mxGeometry>
        </mxCell>
        <mxCell id="nJSs2wzzEc3q5zwMcev3-23" value="As informações editadas são válidas ?" style="rhombus;whiteSpace=wrap;html=1;fillColor=#dae8fc;strokeColor=#6c8ebf;" vertex="1" parent="1">
          <mxGeometry x="35" y="529.5" width="140" height="110" as="geometry" />
        </mxCell>
        <mxCell id="nJSs2wzzEc3q5zwMcev3-33" value="" style="edgeStyle=orthogonalEdgeStyle;rounded=0;orthogonalLoop=1;jettySize=auto;html=1;" edge="1" parent="1" source="nJSs2wzzEc3q5zwMcev3-30">
          <mxGeometry relative="1" as="geometry">
            <mxPoint x="111" y="780" as="targetPoint" />
          </mxGeometry>
        </mxCell>
        <mxCell id="nJSs2wzzEc3q5zwMcev3-30" value="Atualizar produto" style="rounded=0;whiteSpace=wrap;html=1;fillColor=#dae8fc;strokeColor=#6c8ebf;" vertex="1" parent="1">
          <mxGeometry x="51.25" y="680" width="120" height="60" as="geometry" />
        </mxCell>
        <mxCell id="nJSs2wzzEc3q5zwMcev3-34" value="Fim" style="ellipse;whiteSpace=wrap;html=1;fillColor=#dae8fc;strokeColor=#6c8ebf;" vertex="1" parent="1">
          <mxGeometry x="59.38" y="780" width="103.75" height="60" as="geometry" />
        </mxCell>
        <mxCell id="nJSs2wzzEc3q5zwMcev3-43" style="edgeStyle=orthogonalEdgeStyle;rounded=0;orthogonalLoop=1;jettySize=auto;html=1;exitX=0.5;exitY=1;exitDx=0;exitDy=0;" edge="1" parent="1" source="nJSs2wzzEc3q5zwMcev3-35" target="nJSs2wzzEc3q5zwMcev3-44">
          <mxGeometry relative="1" as="geometry">
            <mxPoint x="318" y="160" as="targetPoint" />
          </mxGeometry>
        </mxCell>
        <mxCell id="nJSs2wzzEc3q5zwMcev3-35" value="Início" style="ellipse;whiteSpace=wrap;html=1;fillColor=#e1d5e7;strokeColor=#9673a6;" vertex="1" parent="1">
          <mxGeometry x="270" y="70" width="95" height="60" as="geometry" />
        </mxCell>
        <mxCell id="nJSs2wzzEc3q5zwMcev3-40" value="&lt;h1&gt;Cadastrar Cliente&lt;/h1&gt;" style="text;html=1;align=center;verticalAlign=middle;resizable=0;points=[];autosize=1;strokeColor=none;fillColor=none;" vertex="1" parent="1">
          <mxGeometry x="220" width="220" height="70" as="geometry" />
        </mxCell>
        <mxCell id="nJSs2wzzEc3q5zwMcev3-45" style="edgeStyle=orthogonalEdgeStyle;rounded=0;orthogonalLoop=1;jettySize=auto;html=1;" edge="1" parent="1" source="nJSs2wzzEc3q5zwMcev3-44" target="nJSs2wzzEc3q5zwMcev3-46">
          <mxGeometry relative="1" as="geometry">
            <mxPoint x="317.5" y="250" as="targetPoint" />
          </mxGeometry>
        </mxCell>
        <mxCell id="nJSs2wzzEc3q5zwMcev3-44" value="Clicar na tela de cliente" style="rounded=0;whiteSpace=wrap;html=1;fillColor=#e1d5e7;strokeColor=#9673a6;" vertex="1" parent="1">
          <mxGeometry x="257.5" y="160" width="120" height="60" as="geometry" />
        </mxCell>
        <mxCell id="nJSs2wzzEc3q5zwMcev3-47" style="edgeStyle=orthogonalEdgeStyle;rounded=0;orthogonalLoop=1;jettySize=auto;html=1;" edge="1" parent="1" source="nJSs2wzzEc3q5zwMcev3-46">
          <mxGeometry relative="1" as="geometry">
            <mxPoint x="317.5" y="340" as="targetPoint" />
          </mxGeometry>
        </mxCell>
        <mxCell id="nJSs2wzzEc3q5zwMcev3-46" value="Preencher as informações necessárias" style="rounded=0;whiteSpace=wrap;html=1;fillColor=#e1d5e7;strokeColor=#9673a6;" vertex="1" parent="1">
          <mxGeometry x="257.5" y="250" width="120" height="60" as="geometry" />
        </mxCell>
        <mxCell id="nJSs2wzzEc3q5zwMcev3-50" style="edgeStyle=orthogonalEdgeStyle;rounded=0;orthogonalLoop=1;jettySize=auto;html=1;entryX=1;entryY=0.5;entryDx=0;entryDy=0;exitX=1;exitY=0.5;exitDx=0;exitDy=0;" edge="1" parent="1" source="nJSs2wzzEc3q5zwMcev3-49" target="nJSs2wzzEc3q5zwMcev3-46">
          <mxGeometry relative="1" as="geometry">
            <Array as="points">
              <mxPoint x="410" y="385" />
              <mxPoint x="410" y="280" />
            </Array>
          </mxGeometry>
        </mxCell>
        <mxCell id="nJSs2wzzEc3q5zwMcev3-51" value="Não" style="edgeLabel;html=1;align=center;verticalAlign=middle;resizable=0;points=[];" vertex="1" connectable="0" parent="nJSs2wzzEc3q5zwMcev3-50">
          <mxGeometry x="0.0078" y="-1" relative="1" as="geometry">
            <mxPoint as="offset" />
          </mxGeometry>
        </mxCell>
        <mxCell id="nJSs2wzzEc3q5zwMcev3-52" style="edgeStyle=orthogonalEdgeStyle;rounded=0;orthogonalLoop=1;jettySize=auto;html=1;" edge="1" parent="1" source="nJSs2wzzEc3q5zwMcev3-49" target="nJSs2wzzEc3q5zwMcev3-53">
          <mxGeometry relative="1" as="geometry">
            <mxPoint x="317.5" y="460" as="targetPoint" />
          </mxGeometry>
        </mxCell>
        <mxCell id="nJSs2wzzEc3q5zwMcev3-54" value="Sim" style="edgeLabel;html=1;align=center;verticalAlign=middle;resizable=0;points=[];" vertex="1" connectable="0" parent="nJSs2wzzEc3q5zwMcev3-52">
          <mxGeometry x="-0.08" y="-2" relative="1" as="geometry">
            <mxPoint as="offset" />
          </mxGeometry>
        </mxCell>
        <mxCell id="nJSs2wzzEc3q5zwMcev3-49" value="As informações são válidas?" style="rhombus;whiteSpace=wrap;html=1;fillColor=#e1d5e7;strokeColor=#9673a6;" vertex="1" parent="1">
          <mxGeometry x="260" y="340" width="115" height="90" as="geometry" />
        </mxCell>
        <mxCell id="nJSs2wzzEc3q5zwMcev3-55" style="edgeStyle=orthogonalEdgeStyle;rounded=0;orthogonalLoop=1;jettySize=auto;html=1;" edge="1" parent="1" source="nJSs2wzzEc3q5zwMcev3-53" target="nJSs2wzzEc3q5zwMcev3-56">
          <mxGeometry relative="1" as="geometry">
            <mxPoint x="317.5" y="570" as="targetPoint" />
          </mxGeometry>
        </mxCell>
        <mxCell id="nJSs2wzzEc3q5zwMcev3-53" value="Confirmar cadastro" style="rounded=0;whiteSpace=wrap;html=1;fillColor=#e1d5e7;strokeColor=#9673a6;" vertex="1" parent="1">
          <mxGeometry x="257.5" y="480" width="120" height="60" as="geometry" />
        </mxCell>
        <mxCell id="nJSs2wzzEc3q5zwMcev3-56" value="Fim" style="ellipse;whiteSpace=wrap;html=1;fillColor=#e1d5e7;strokeColor=#9673a6;" vertex="1" parent="1">
          <mxGeometry x="266.25" y="585" width="102.5" height="60" as="geometry" />
        </mxCell>
        <mxCell id="nJSs2wzzEc3q5zwMcev3-57" value="&lt;h1&gt;Apagar Produto&lt;/h1&gt;" style="text;html=1;align=center;verticalAlign=middle;resizable=0;points=[];autosize=1;strokeColor=none;fillColor=none;" vertex="1" parent="1">
          <mxGeometry x="465" width="200" height="70" as="geometry" />
        </mxCell>
        <mxCell id="nJSs2wzzEc3q5zwMcev3-59" style="edgeStyle=orthogonalEdgeStyle;rounded=0;orthogonalLoop=1;jettySize=auto;html=1;" edge="1" parent="1" source="nJSs2wzzEc3q5zwMcev3-58" target="nJSs2wzzEc3q5zwMcev3-60">
          <mxGeometry relative="1" as="geometry">
            <mxPoint x="555" y="160" as="targetPoint" />
          </mxGeometry>
        </mxCell>
        <mxCell id="nJSs2wzzEc3q5zwMcev3-58" value="Início" style="ellipse;whiteSpace=wrap;html=1;fillColor=#fff2cc;strokeColor=#d6b656;" vertex="1" parent="1">
          <mxGeometry x="500" y="70" width="110" height="60" as="geometry" />
        </mxCell>
        <mxCell id="nJSs2wzzEc3q5zwMcev3-61" style="edgeStyle=orthogonalEdgeStyle;rounded=0;orthogonalLoop=1;jettySize=auto;html=1;" edge="1" parent="1" source="nJSs2wzzEc3q5zwMcev3-60" target="nJSs2wzzEc3q5zwMcev3-62">
          <mxGeometry relative="1" as="geometry">
            <mxPoint x="555" y="250" as="targetPoint" />
          </mxGeometry>
        </mxCell>
        <mxCell id="nJSs2wzzEc3q5zwMcev3-60" value="Dentro da tela produto clicar em remover" style="rounded=0;whiteSpace=wrap;html=1;fillColor=#fff2cc;strokeColor=#d6b656;" vertex="1" parent="1">
          <mxGeometry x="495" y="160" width="120" height="60" as="geometry" />
        </mxCell>
        <mxCell id="nJSs2wzzEc3q5zwMcev3-63" style="edgeStyle=orthogonalEdgeStyle;rounded=0;orthogonalLoop=1;jettySize=auto;html=1;" edge="1" parent="1" source="nJSs2wzzEc3q5zwMcev3-62" target="nJSs2wzzEc3q5zwMcev3-64">
          <mxGeometry relative="1" as="geometry">
            <mxPoint x="555" y="340" as="targetPoint" />
          </mxGeometry>
        </mxCell>
        <mxCell id="nJSs2wzzEc3q5zwMcev3-62" value="Aparecer na tela espaço para digitar motivo" style="rounded=0;whiteSpace=wrap;html=1;fillColor=#fff2cc;strokeColor=#d6b656;" vertex="1" parent="1">
          <mxGeometry x="495" y="250" width="120" height="60" as="geometry" />
        </mxCell>
        <mxCell id="nJSs2wzzEc3q5zwMcev3-65" style="edgeStyle=orthogonalEdgeStyle;rounded=0;orthogonalLoop=1;jettySize=auto;html=1;" edge="1" parent="1" source="nJSs2wzzEc3q5zwMcev3-64" target="nJSs2wzzEc3q5zwMcev3-66">
          <mxGeometry relative="1" as="geometry">
            <mxPoint x="555" y="430" as="targetPoint" />
          </mxGeometry>
        </mxCell>
        <mxCell id="nJSs2wzzEc3q5zwMcev3-64" value="Digitar motivo&amp;nbsp;" style="rounded=0;whiteSpace=wrap;html=1;fillColor=#fff2cc;strokeColor=#d6b656;" vertex="1" parent="1">
          <mxGeometry x="495" y="340" width="120" height="60" as="geometry" />
        </mxCell>
        <mxCell id="nJSs2wzzEc3q5zwMcev3-67" style="edgeStyle=orthogonalEdgeStyle;rounded=0;orthogonalLoop=1;jettySize=auto;html=1;entryX=1;entryY=0.5;entryDx=0;entryDy=0;exitX=1;exitY=0.5;exitDx=0;exitDy=0;" edge="1" parent="1" source="nJSs2wzzEc3q5zwMcev3-66" target="nJSs2wzzEc3q5zwMcev3-64">
          <mxGeometry relative="1" as="geometry">
            <Array as="points">
              <mxPoint x="670" y="475" />
              <mxPoint x="670" y="370" />
            </Array>
          </mxGeometry>
        </mxCell>
        <mxCell id="nJSs2wzzEc3q5zwMcev3-68" value="Não" style="edgeLabel;html=1;align=center;verticalAlign=middle;resizable=0;points=[];" vertex="1" connectable="0" parent="nJSs2wzzEc3q5zwMcev3-67">
          <mxGeometry x="-0.0286" y="-2" relative="1" as="geometry">
            <mxPoint as="offset" />
          </mxGeometry>
        </mxCell>
        <mxCell id="nJSs2wzzEc3q5zwMcev3-69" style="edgeStyle=orthogonalEdgeStyle;rounded=0;orthogonalLoop=1;jettySize=auto;html=1;" edge="1" parent="1" source="nJSs2wzzEc3q5zwMcev3-66" target="nJSs2wzzEc3q5zwMcev3-70">
          <mxGeometry relative="1" as="geometry">
            <mxPoint x="555" y="550" as="targetPoint" />
          </mxGeometry>
        </mxCell>
        <mxCell id="nJSs2wzzEc3q5zwMcev3-71" value="Sim" style="edgeLabel;html=1;align=center;verticalAlign=middle;resizable=0;points=[];" vertex="1" connectable="0" parent="nJSs2wzzEc3q5zwMcev3-69">
          <mxGeometry x="0.1111" relative="1" as="geometry">
            <mxPoint as="offset" />
          </mxGeometry>
        </mxCell>
        <mxCell id="nJSs2wzzEc3q5zwMcev3-66" value="Espaço preenchido" style="rhombus;whiteSpace=wrap;html=1;fillColor=#fff2cc;strokeColor=#d6b656;" vertex="1" parent="1">
          <mxGeometry x="490" y="430" width="130" height="90" as="geometry" />
        </mxCell>
        <mxCell id="nJSs2wzzEc3q5zwMcev3-72" style="edgeStyle=orthogonalEdgeStyle;rounded=0;orthogonalLoop=1;jettySize=auto;html=1;" edge="1" parent="1" source="nJSs2wzzEc3q5zwMcev3-70" target="nJSs2wzzEc3q5zwMcev3-73">
          <mxGeometry relative="1" as="geometry">
            <mxPoint x="555" y="640" as="targetPoint" />
          </mxGeometry>
        </mxCell>
        <mxCell id="nJSs2wzzEc3q5zwMcev3-70" value="Remover" style="rounded=0;whiteSpace=wrap;html=1;fillColor=#fff2cc;strokeColor=#d6b656;" vertex="1" parent="1">
          <mxGeometry x="495" y="555" width="120" height="60" as="geometry" />
        </mxCell>
        <mxCell id="nJSs2wzzEc3q5zwMcev3-73" value="Fim" style="ellipse;whiteSpace=wrap;html=1;fillColor=#fff2cc;strokeColor=#d6b656;" vertex="1" parent="1">
          <mxGeometry x="500" y="650" width="110" height="60" as="geometry" />
        </mxCell>
        <mxCell id="nJSs2wzzEc3q5zwMcev3-75" value="&lt;h1&gt;Apagar Cliente&lt;/h1&gt;" style="text;html=1;align=center;verticalAlign=middle;resizable=0;points=[];autosize=1;strokeColor=none;fillColor=none;" vertex="1" parent="1">
          <mxGeometry x="710" width="190" height="70" as="geometry" />
        </mxCell>
        <mxCell id="nJSs2wzzEc3q5zwMcev3-77" style="edgeStyle=orthogonalEdgeStyle;rounded=0;orthogonalLoop=1;jettySize=auto;html=1;" edge="1" parent="1" source="nJSs2wzzEc3q5zwMcev3-76" target="nJSs2wzzEc3q5zwMcev3-78">
          <mxGeometry relative="1" as="geometry">
            <mxPoint x="805" y="160" as="targetPoint" />
          </mxGeometry>
        </mxCell>
        <mxCell id="nJSs2wzzEc3q5zwMcev3-76" value="Início" style="ellipse;whiteSpace=wrap;html=1;fillColor=#f8cecc;strokeColor=#b85450;" vertex="1" parent="1">
          <mxGeometry x="753.75" y="70" width="102.5" height="65" as="geometry" />
        </mxCell>
        <mxCell id="nJSs2wzzEc3q5zwMcev3-79" style="edgeStyle=orthogonalEdgeStyle;rounded=0;orthogonalLoop=1;jettySize=auto;html=1;" edge="1" parent="1" source="nJSs2wzzEc3q5zwMcev3-78" target="nJSs2wzzEc3q5zwMcev3-80">
          <mxGeometry relative="1" as="geometry">
            <mxPoint x="805" y="250" as="targetPoint" />
          </mxGeometry>
        </mxCell>
        <mxCell id="nJSs2wzzEc3q5zwMcev3-78" value="Dentro da tela cliente clicar em remover&amp;nbsp;" style="rounded=0;whiteSpace=wrap;html=1;fillColor=#f8cecc;strokeColor=#b85450;" vertex="1" parent="1">
          <mxGeometry x="747.5" y="165" width="115" height="60" as="geometry" />
        </mxCell>
        <mxCell id="nJSs2wzzEc3q5zwMcev3-81" style="edgeStyle=orthogonalEdgeStyle;rounded=0;orthogonalLoop=1;jettySize=auto;html=1;" edge="1" parent="1" source="nJSs2wzzEc3q5zwMcev3-80" target="nJSs2wzzEc3q5zwMcev3-82">
          <mxGeometry relative="1" as="geometry">
            <mxPoint x="805" y="340" as="targetPoint" />
          </mxGeometry>
        </mxCell>
        <mxCell id="nJSs2wzzEc3q5zwMcev3-80" value="Aparecer na tela espaço para digitar motivo&amp;nbsp;" style="rounded=0;whiteSpace=wrap;html=1;fillColor=#f8cecc;strokeColor=#b85450;" vertex="1" parent="1">
          <mxGeometry x="745" y="255" width="120" height="60" as="geometry" />
        </mxCell>
        <mxCell id="nJSs2wzzEc3q5zwMcev3-83" style="edgeStyle=orthogonalEdgeStyle;rounded=0;orthogonalLoop=1;jettySize=auto;html=1;" edge="1" parent="1" source="nJSs2wzzEc3q5zwMcev3-82" target="nJSs2wzzEc3q5zwMcev3-84">
          <mxGeometry relative="1" as="geometry">
            <mxPoint x="805" y="430" as="targetPoint" />
          </mxGeometry>
        </mxCell>
        <mxCell id="nJSs2wzzEc3q5zwMcev3-82" value="Digitar motivo" style="rounded=0;whiteSpace=wrap;html=1;fillColor=#f8cecc;strokeColor=#b85450;" vertex="1" parent="1">
          <mxGeometry x="745" y="345" width="120" height="60" as="geometry" />
        </mxCell>
        <mxCell id="nJSs2wzzEc3q5zwMcev3-85" style="edgeStyle=orthogonalEdgeStyle;rounded=0;orthogonalLoop=1;jettySize=auto;html=1;entryX=1;entryY=0.5;entryDx=0;entryDy=0;exitX=1;exitY=0.5;exitDx=0;exitDy=0;" edge="1" parent="1" source="nJSs2wzzEc3q5zwMcev3-84" target="nJSs2wzzEc3q5zwMcev3-82">
          <mxGeometry relative="1" as="geometry">
            <Array as="points">
              <mxPoint x="900" y="480" />
              <mxPoint x="900" y="375" />
            </Array>
          </mxGeometry>
        </mxCell>
        <mxCell id="nJSs2wzzEc3q5zwMcev3-86" value="Não" style="edgeLabel;html=1;align=center;verticalAlign=middle;resizable=0;points=[];" vertex="1" connectable="0" parent="nJSs2wzzEc3q5zwMcev3-85">
          <mxGeometry x="-0.0057" relative="1" as="geometry">
            <mxPoint as="offset" />
          </mxGeometry>
        </mxCell>
        <mxCell id="nJSs2wzzEc3q5zwMcev3-87" style="edgeStyle=orthogonalEdgeStyle;rounded=0;orthogonalLoop=1;jettySize=auto;html=1;" edge="1" parent="1" source="nJSs2wzzEc3q5zwMcev3-84" target="nJSs2wzzEc3q5zwMcev3-88">
          <mxGeometry relative="1" as="geometry">
            <mxPoint x="805" y="550" as="targetPoint" />
          </mxGeometry>
        </mxCell>
        <mxCell id="nJSs2wzzEc3q5zwMcev3-89" value="Sim" style="edgeLabel;html=1;align=center;verticalAlign=middle;resizable=0;points=[];" vertex="1" connectable="0" parent="nJSs2wzzEc3q5zwMcev3-87">
          <mxGeometry x="0.24" y="-1" relative="1" as="geometry">
            <mxPoint as="offset" />
          </mxGeometry>
        </mxCell>
        <mxCell id="nJSs2wzzEc3q5zwMcev3-84" value="Espaço preenchido" style="rhombus;whiteSpace=wrap;html=1;fillColor=#f8cecc;strokeColor=#b85450;" vertex="1" parent="1">
          <mxGeometry x="745" y="440" width="120" height="80" as="geometry" />
        </mxCell>
        <mxCell id="nJSs2wzzEc3q5zwMcev3-90" style="edgeStyle=orthogonalEdgeStyle;rounded=0;orthogonalLoop=1;jettySize=auto;html=1;" edge="1" parent="1" source="nJSs2wzzEc3q5zwMcev3-88" target="nJSs2wzzEc3q5zwMcev3-91">
          <mxGeometry relative="1" as="geometry">
            <mxPoint x="805" y="650" as="targetPoint" />
          </mxGeometry>
        </mxCell>
        <mxCell id="nJSs2wzzEc3q5zwMcev3-88" value="Remover&amp;nbsp;" style="rounded=0;whiteSpace=wrap;html=1;fillColor=#f8cecc;strokeColor=#b85450;" vertex="1" parent="1">
          <mxGeometry x="745" y="555" width="120" height="60" as="geometry" />
        </mxCell>
        <mxCell id="nJSs2wzzEc3q5zwMcev3-91" value="Fim" style="ellipse;whiteSpace=wrap;html=1;fillColor=#f8cecc;strokeColor=#b85450;" vertex="1" parent="1">
          <mxGeometry x="756.25" y="650" width="97.5" height="60" as="geometry" />
        </mxCell>
        <mxCell id="nJSs2wzzEc3q5zwMcev3-92" value="&lt;h1&gt;Análise de Viabilidade do Produto&lt;/h1&gt;" style="text;html=1;align=center;verticalAlign=middle;resizable=0;points=[];autosize=1;" vertex="1" parent="1">
          <mxGeometry x="991" width="410" height="70" as="geometry" />
        </mxCell>
        <mxCell id="nJSs2wzzEc3q5zwMcev3-95" value="" style="edgeStyle=orthogonalEdgeStyle;rounded=0;orthogonalLoop=1;jettySize=auto;html=1;" edge="1" parent="1" source="nJSs2wzzEc3q5zwMcev3-93" target="nJSs2wzzEc3q5zwMcev3-94">
          <mxGeometry relative="1" as="geometry" />
        </mxCell>
        <mxCell id="nJSs2wzzEc3q5zwMcev3-93" value="Início" style="ellipse;whiteSpace=wrap;html=1;fillColor=#ffe6cc;strokeColor=#d79b00;" vertex="1" parent="1">
          <mxGeometry x="1020" y="100" width="110" height="60" as="geometry" />
        </mxCell>
        <mxCell id="nJSs2wzzEc3q5zwMcev3-97" value="" style="edgeStyle=orthogonalEdgeStyle;rounded=0;orthogonalLoop=1;jettySize=auto;html=1;" edge="1" parent="1" source="nJSs2wzzEc3q5zwMcev3-94" target="nJSs2wzzEc3q5zwMcev3-96">
          <mxGeometry relative="1" as="geometry" />
        </mxCell>
        <mxCell id="nJSs2wzzEc3q5zwMcev3-94" value="Após cadastro do lote/produção verificar insumos" style="whiteSpace=wrap;html=1;fillColor=#ffe6cc;strokeColor=#d79b00;" vertex="1" parent="1">
          <mxGeometry x="1015" y="195" width="120" height="60" as="geometry" />
        </mxCell>
        <mxCell id="nJSs2wzzEc3q5zwMcev3-102" value="" style="edgeStyle=orthogonalEdgeStyle;rounded=0;orthogonalLoop=1;jettySize=auto;html=1;" edge="1" parent="1" source="nJSs2wzzEc3q5zwMcev3-96" target="nJSs2wzzEc3q5zwMcev3-101">
          <mxGeometry relative="1" as="geometry" />
        </mxCell>
        <mxCell id="nJSs2wzzEc3q5zwMcev3-103" value="Não" style="edgeLabel;html=1;align=center;verticalAlign=middle;resizable=0;points=[];" vertex="1" connectable="0" parent="nJSs2wzzEc3q5zwMcev3-102">
          <mxGeometry x="-0.2727" relative="1" as="geometry">
            <mxPoint as="offset" />
          </mxGeometry>
        </mxCell>
        <mxCell id="nJSs2wzzEc3q5zwMcev3-107" value="" style="edgeStyle=orthogonalEdgeStyle;rounded=0;orthogonalLoop=1;jettySize=auto;html=1;" edge="1" parent="1" source="nJSs2wzzEc3q5zwMcev3-96" target="nJSs2wzzEc3q5zwMcev3-106">
          <mxGeometry relative="1" as="geometry" />
        </mxCell>
        <mxCell id="nJSs2wzzEc3q5zwMcev3-96" value="Quantidade de materiais correto&amp;nbsp;" style="whiteSpace=wrap;html=1;fillColor=#ffe6cc;strokeColor=#d79b00;" vertex="1" parent="1">
          <mxGeometry x="1015" y="300" width="120" height="60" as="geometry" />
        </mxCell>
        <mxCell id="nJSs2wzzEc3q5zwMcev3-105" value="" style="edgeStyle=orthogonalEdgeStyle;rounded=0;orthogonalLoop=1;jettySize=auto;html=1;" edge="1" parent="1" source="nJSs2wzzEc3q5zwMcev3-101" target="nJSs2wzzEc3q5zwMcev3-104">
          <mxGeometry relative="1" as="geometry" />
        </mxCell>
        <mxCell id="nJSs2wzzEc3q5zwMcev3-101" value="Indicador de falta de materiais aparece&amp;nbsp;" style="whiteSpace=wrap;html=1;fillColor=#ffe6cc;strokeColor=#d79b00;" vertex="1" parent="1">
          <mxGeometry x="1190" y="300" width="120" height="60" as="geometry" />
        </mxCell>
        <mxCell id="nJSs2wzzEc3q5zwMcev3-122" style="edgeStyle=orthogonalEdgeStyle;rounded=0;orthogonalLoop=1;jettySize=auto;html=1;exitX=1;exitY=0.5;exitDx=0;exitDy=0;entryX=1;entryY=0.5;entryDx=0;entryDy=0;" edge="1" parent="1" source="nJSs2wzzEc3q5zwMcev3-104" target="nJSs2wzzEc3q5zwMcev3-120">
          <mxGeometry relative="1" as="geometry" />
        </mxCell>
        <mxCell id="nJSs2wzzEc3q5zwMcev3-104" value="Verificar com cliente&amp;nbsp;" style="whiteSpace=wrap;html=1;fillColor=#ffe6cc;strokeColor=#d79b00;" vertex="1" parent="1">
          <mxGeometry x="1350" y="300" width="120" height="60" as="geometry" />
        </mxCell>
        <mxCell id="nJSs2wzzEc3q5zwMcev3-110" value="" style="edgeStyle=orthogonalEdgeStyle;rounded=0;orthogonalLoop=1;jettySize=auto;html=1;" edge="1" parent="1" source="nJSs2wzzEc3q5zwMcev3-106" target="nJSs2wzzEc3q5zwMcev3-109">
          <mxGeometry relative="1" as="geometry" />
        </mxCell>
        <mxCell id="nJSs2wzzEc3q5zwMcev3-106" value="Seguir viabilidade&amp;nbsp;" style="whiteSpace=wrap;html=1;fillColor=#ffe6cc;strokeColor=#d79b00;" vertex="1" parent="1">
          <mxGeometry x="1015" y="405" width="120" height="60" as="geometry" />
        </mxCell>
        <mxCell id="nJSs2wzzEc3q5zwMcev3-112" value="" style="edgeStyle=orthogonalEdgeStyle;rounded=0;orthogonalLoop=1;jettySize=auto;html=1;" edge="1" parent="1" source="nJSs2wzzEc3q5zwMcev3-109" target="nJSs2wzzEc3q5zwMcev3-111">
          <mxGeometry relative="1" as="geometry" />
        </mxCell>
        <mxCell id="nJSs2wzzEc3q5zwMcev3-109" value="Contagem peças&amp;nbsp;" style="whiteSpace=wrap;html=1;fillColor=#ffe6cc;strokeColor=#d79b00;" vertex="1" parent="1">
          <mxGeometry x="1015" y="520" width="120" height="60" as="geometry" />
        </mxCell>
        <mxCell id="nJSs2wzzEc3q5zwMcev3-114" value="" style="edgeStyle=orthogonalEdgeStyle;rounded=0;orthogonalLoop=1;jettySize=auto;html=1;" edge="1" parent="1" source="nJSs2wzzEc3q5zwMcev3-111" target="nJSs2wzzEc3q5zwMcev3-113">
          <mxGeometry relative="1" as="geometry" />
        </mxCell>
        <mxCell id="nJSs2wzzEc3q5zwMcev3-115" value="Não" style="edgeLabel;html=1;align=center;verticalAlign=middle;resizable=0;points=[];" vertex="1" connectable="0" parent="nJSs2wzzEc3q5zwMcev3-114">
          <mxGeometry x="-0.125" y="1" relative="1" as="geometry">
            <mxPoint y="1" as="offset" />
          </mxGeometry>
        </mxCell>
        <mxCell id="nJSs2wzzEc3q5zwMcev3-118" value="" style="edgeStyle=orthogonalEdgeStyle;rounded=0;orthogonalLoop=1;jettySize=auto;html=1;" edge="1" parent="1" source="nJSs2wzzEc3q5zwMcev3-111" target="nJSs2wzzEc3q5zwMcev3-117">
          <mxGeometry relative="1" as="geometry" />
        </mxCell>
        <mxCell id="nJSs2wzzEc3q5zwMcev3-119" value="Sim" style="edgeLabel;html=1;align=center;verticalAlign=middle;resizable=0;points=[];" vertex="1" connectable="0" parent="nJSs2wzzEc3q5zwMcev3-118">
          <mxGeometry x="-0.3222" y="-1" relative="1" as="geometry">
            <mxPoint as="offset" />
          </mxGeometry>
        </mxCell>
        <mxCell id="nJSs2wzzEc3q5zwMcev3-111" value="Quantidade correta&amp;nbsp;" style="rhombus;whiteSpace=wrap;html=1;fillColor=#ffe6cc;strokeColor=#d79b00;" vertex="1" parent="1">
          <mxGeometry x="1015" y="639.5" width="120" height="80" as="geometry" />
        </mxCell>
        <mxCell id="nJSs2wzzEc3q5zwMcev3-116" style="edgeStyle=orthogonalEdgeStyle;rounded=0;orthogonalLoop=1;jettySize=auto;html=1;entryX=0.5;entryY=1;entryDx=0;entryDy=0;" edge="1" parent="1" source="nJSs2wzzEc3q5zwMcev3-113" target="nJSs2wzzEc3q5zwMcev3-104">
          <mxGeometry relative="1" as="geometry" />
        </mxCell>
        <mxCell id="nJSs2wzzEc3q5zwMcev3-113" value="Indicador de falta de peças" style="whiteSpace=wrap;html=1;fillColor=#ffe6cc;strokeColor=#d79b00;" vertex="1" parent="1">
          <mxGeometry x="1215" y="649.5" width="120" height="60" as="geometry" />
        </mxCell>
        <mxCell id="nJSs2wzzEc3q5zwMcev3-121" value="" style="edgeStyle=orthogonalEdgeStyle;rounded=0;orthogonalLoop=1;jettySize=auto;html=1;" edge="1" parent="1" source="nJSs2wzzEc3q5zwMcev3-117" target="nJSs2wzzEc3q5zwMcev3-120">
          <mxGeometry relative="1" as="geometry" />
        </mxCell>
        <mxCell id="nJSs2wzzEc3q5zwMcev3-117" value="Seguir com produção" style="whiteSpace=wrap;html=1;fillColor=#ffe6cc;strokeColor=#d79b00;" vertex="1" parent="1">
          <mxGeometry x="1015" y="770" width="120" height="60" as="geometry" />
        </mxCell>
        <mxCell id="nJSs2wzzEc3q5zwMcev3-120" value="Fim" style="ellipse;whiteSpace=wrap;html=1;fillColor=#ffe6cc;strokeColor=#d79b00;" vertex="1" parent="1">
          <mxGeometry x="1027.5" y="860" width="95" height="60" as="geometry" />
        </mxCell>
        <mxCell id="nJSs2wzzEc3q5zwMcev3-123" value="&lt;h1&gt;Atualizar Cliente&lt;/h1&gt;" style="text;html=1;align=center;verticalAlign=middle;resizable=0;points=[];autosize=1;strokeColor=none;fillColor=none;" vertex="1" parent="1">
          <mxGeometry x="1600" width="210" height="70" as="geometry" />
        </mxCell>
        <mxCell id="nJSs2wzzEc3q5zwMcev3-128" value="" style="edgeStyle=orthogonalEdgeStyle;rounded=0;orthogonalLoop=1;jettySize=auto;html=1;" edge="1" parent="1" source="nJSs2wzzEc3q5zwMcev3-126" target="nJSs2wzzEc3q5zwMcev3-127">
          <mxGeometry relative="1" as="geometry" />
        </mxCell>
        <mxCell id="nJSs2wzzEc3q5zwMcev3-126" value="Início" style="ellipse;whiteSpace=wrap;html=1;fillColor=#b1ddf0;strokeColor=#10739e;" vertex="1" parent="1">
          <mxGeometry x="1647.5" y="70" width="115" height="65" as="geometry" />
        </mxCell>
        <mxCell id="nJSs2wzzEc3q5zwMcev3-130" value="" style="edgeStyle=orthogonalEdgeStyle;rounded=0;orthogonalLoop=1;jettySize=auto;html=1;" edge="1" parent="1" source="nJSs2wzzEc3q5zwMcev3-127" target="nJSs2wzzEc3q5zwMcev3-129">
          <mxGeometry relative="1" as="geometry" />
        </mxCell>
        <mxCell id="nJSs2wzzEc3q5zwMcev3-127" value="Clicar em clientes" style="whiteSpace=wrap;html=1;fillColor=#b1ddf0;strokeColor=#10739e;" vertex="1" parent="1">
          <mxGeometry x="1645" y="170" width="120" height="60" as="geometry" />
        </mxCell>
        <mxCell id="nJSs2wzzEc3q5zwMcev3-132" value="" style="edgeStyle=orthogonalEdgeStyle;rounded=0;orthogonalLoop=1;jettySize=auto;html=1;" edge="1" parent="1" source="nJSs2wzzEc3q5zwMcev3-129" target="nJSs2wzzEc3q5zwMcev3-131">
          <mxGeometry relative="1" as="geometry" />
        </mxCell>
        <mxCell id="nJSs2wzzEc3q5zwMcev3-129" value="Escolher cliente" style="whiteSpace=wrap;html=1;fillColor=#b1ddf0;strokeColor=#10739e;" vertex="1" parent="1">
          <mxGeometry x="1645" y="270" width="120" height="60" as="geometry" />
        </mxCell>
        <mxCell id="nJSs2wzzEc3q5zwMcev3-135" value="" style="edgeStyle=orthogonalEdgeStyle;rounded=0;orthogonalLoop=1;jettySize=auto;html=1;" edge="1" parent="1" source="nJSs2wzzEc3q5zwMcev3-131" target="nJSs2wzzEc3q5zwMcev3-134">
          <mxGeometry relative="1" as="geometry" />
        </mxCell>
        <mxCell id="nJSs2wzzEc3q5zwMcev3-131" value="Editar cliente" style="whiteSpace=wrap;html=1;fillColor=#b1ddf0;strokeColor=#10739e;" vertex="1" parent="1">
          <mxGeometry x="1645" y="370" width="120" height="60" as="geometry" />
        </mxCell>
        <mxCell id="nJSs2wzzEc3q5zwMcev3-137" value="" style="edgeStyle=orthogonalEdgeStyle;rounded=0;orthogonalLoop=1;jettySize=auto;html=1;" edge="1" parent="1" source="nJSs2wzzEc3q5zwMcev3-134" target="nJSs2wzzEc3q5zwMcev3-136">
          <mxGeometry relative="1" as="geometry" />
        </mxCell>
        <mxCell id="nJSs2wzzEc3q5zwMcev3-134" value="Editor informações" style="whiteSpace=wrap;html=1;fillColor=#b1ddf0;strokeColor=#10739e;" vertex="1" parent="1">
          <mxGeometry x="1645" y="469.5" width="120" height="60" as="geometry" />
        </mxCell>
        <mxCell id="nJSs2wzzEc3q5zwMcev3-138" style="edgeStyle=orthogonalEdgeStyle;rounded=0;orthogonalLoop=1;jettySize=auto;html=1;entryX=1;entryY=0.5;entryDx=0;entryDy=0;exitX=1;exitY=0.5;exitDx=0;exitDy=0;" edge="1" parent="1" source="nJSs2wzzEc3q5zwMcev3-136" target="nJSs2wzzEc3q5zwMcev3-131">
          <mxGeometry relative="1" as="geometry" />
        </mxCell>
        <mxCell id="nJSs2wzzEc3q5zwMcev3-139" value="Não" style="edgeLabel;html=1;align=center;verticalAlign=middle;resizable=0;points=[];" vertex="1" connectable="0" parent="nJSs2wzzEc3q5zwMcev3-138">
          <mxGeometry x="-0.0667" relative="1" as="geometry">
            <mxPoint as="offset" />
          </mxGeometry>
        </mxCell>
        <mxCell id="nJSs2wzzEc3q5zwMcev3-141" value="" style="edgeStyle=orthogonalEdgeStyle;rounded=0;orthogonalLoop=1;jettySize=auto;html=1;" edge="1" parent="1" source="nJSs2wzzEc3q5zwMcev3-136" target="nJSs2wzzEc3q5zwMcev3-140">
          <mxGeometry relative="1" as="geometry" />
        </mxCell>
        <mxCell id="nJSs2wzzEc3q5zwMcev3-142" value="Sim" style="edgeLabel;html=1;align=center;verticalAlign=middle;resizable=0;points=[];" vertex="1" connectable="0" parent="nJSs2wzzEc3q5zwMcev3-141">
          <mxGeometry x="-0.3668" y="-1" relative="1" as="geometry">
            <mxPoint as="offset" />
          </mxGeometry>
        </mxCell>
        <mxCell id="nJSs2wzzEc3q5zwMcev3-136" value="As informações editadas são válidas ?" style="rhombus;whiteSpace=wrap;html=1;fillColor=#b1ddf0;strokeColor=#10739e;" vertex="1" parent="1">
          <mxGeometry x="1630" y="569.75" width="150" height="90.5" as="geometry" />
        </mxCell>
        <mxCell id="nJSs2wzzEc3q5zwMcev3-144" value="" style="edgeStyle=orthogonalEdgeStyle;rounded=0;orthogonalLoop=1;jettySize=auto;html=1;" edge="1" parent="1" source="nJSs2wzzEc3q5zwMcev3-140" target="nJSs2wzzEc3q5zwMcev3-143">
          <mxGeometry relative="1" as="geometry" />
        </mxCell>
        <mxCell id="nJSs2wzzEc3q5zwMcev3-140" value="Atualizar cliente" style="whiteSpace=wrap;html=1;fillColor=#b1ddf0;strokeColor=#10739e;" vertex="1" parent="1">
          <mxGeometry x="1645" y="710" width="120" height="60" as="geometry" />
        </mxCell>
        <mxCell id="nJSs2wzzEc3q5zwMcev3-143" value="Fim" style="ellipse;whiteSpace=wrap;html=1;fillColor=#b1ddf0;strokeColor=#10739e;" vertex="1" parent="1">
          <mxGeometry x="1645" y="800" width="120" height="60" as="geometry" />
        </mxCell>
        <mxCell id="nJSs2wzzEc3q5zwMcev3-146" value="&lt;h1&gt;Conclusão do Pedido&lt;/h1&gt;" style="text;html=1;align=center;verticalAlign=middle;resizable=0;points=[];autosize=1;strokeColor=none;fillColor=none;" vertex="1" parent="1">
          <mxGeometry x="1880" width="270" height="70" as="geometry" />
        </mxCell>
        <mxCell id="nJSs2wzzEc3q5zwMcev3-149" value="" style="edgeStyle=orthogonalEdgeStyle;rounded=0;orthogonalLoop=1;jettySize=auto;html=1;" edge="1" parent="1" source="nJSs2wzzEc3q5zwMcev3-147" target="nJSs2wzzEc3q5zwMcev3-148">
          <mxGeometry relative="1" as="geometry" />
        </mxCell>
        <mxCell id="nJSs2wzzEc3q5zwMcev3-147" value="Início" style="ellipse;whiteSpace=wrap;html=1;fillColor=#bac8d3;strokeColor=#23445d;" vertex="1" parent="1">
          <mxGeometry x="1955" y="70" width="115" height="60" as="geometry" />
        </mxCell>
        <mxCell id="nJSs2wzzEc3q5zwMcev3-151" value="" style="edgeStyle=orthogonalEdgeStyle;rounded=0;orthogonalLoop=1;jettySize=auto;html=1;" edge="1" parent="1" source="nJSs2wzzEc3q5zwMcev3-148" target="nJSs2wzzEc3q5zwMcev3-150">
          <mxGeometry relative="1" as="geometry" />
        </mxCell>
        <mxCell id="nJSs2wzzEc3q5zwMcev3-148" value="Clicou da tela de checklist" style="whiteSpace=wrap;html=1;fillColor=#bac8d3;strokeColor=#23445d;" vertex="1" parent="1">
          <mxGeometry x="1952.5" y="165" width="120" height="60" as="geometry" />
        </mxCell>
        <mxCell id="nJSs2wzzEc3q5zwMcev3-155" value="" style="edgeStyle=orthogonalEdgeStyle;rounded=0;orthogonalLoop=1;jettySize=auto;html=1;" edge="1" parent="1" source="nJSs2wzzEc3q5zwMcev3-150" target="nJSs2wzzEc3q5zwMcev3-154">
          <mxGeometry relative="1" as="geometry" />
        </mxCell>
        <mxCell id="nJSs2wzzEc3q5zwMcev3-150" value="Pesquisou o pedido" style="whiteSpace=wrap;html=1;fillColor=#bac8d3;strokeColor=#23445d;" vertex="1" parent="1">
          <mxGeometry x="1952.5" y="260" width="120" height="60" as="geometry" />
        </mxCell>
        <mxCell id="nJSs2wzzEc3q5zwMcev3-157" value="" style="edgeStyle=orthogonalEdgeStyle;rounded=0;orthogonalLoop=1;jettySize=auto;html=1;" edge="1" parent="1" source="nJSs2wzzEc3q5zwMcev3-154" target="nJSs2wzzEc3q5zwMcev3-156">
          <mxGeometry relative="1" as="geometry" />
        </mxCell>
        <mxCell id="nJSs2wzzEc3q5zwMcev3-158" value="Não" style="edgeLabel;html=1;align=center;verticalAlign=middle;resizable=0;points=[];" vertex="1" connectable="0" parent="nJSs2wzzEc3q5zwMcev3-157">
          <mxGeometry x="-0.0778" y="-2" relative="1" as="geometry">
            <mxPoint x="1" as="offset" />
          </mxGeometry>
        </mxCell>
        <mxCell id="nJSs2wzzEc3q5zwMcev3-160" value="" style="edgeStyle=orthogonalEdgeStyle;rounded=0;orthogonalLoop=1;jettySize=auto;html=1;" edge="1" parent="1" source="nJSs2wzzEc3q5zwMcev3-154" target="nJSs2wzzEc3q5zwMcev3-159">
          <mxGeometry relative="1" as="geometry" />
        </mxCell>
        <mxCell id="nJSs2wzzEc3q5zwMcev3-161" value="Sim" style="edgeLabel;html=1;align=center;verticalAlign=middle;resizable=0;points=[];" vertex="1" connectable="0" parent="nJSs2wzzEc3q5zwMcev3-160">
          <mxGeometry x="-0.1556" y="2" relative="1" as="geometry">
            <mxPoint as="offset" />
          </mxGeometry>
        </mxCell>
        <mxCell id="nJSs2wzzEc3q5zwMcev3-154" value="O pedido existe?" style="rhombus;whiteSpace=wrap;html=1;fillColor=#bac8d3;strokeColor=#23445d;" vertex="1" parent="1">
          <mxGeometry x="1942.5" y="360" width="140" height="80" as="geometry" />
        </mxCell>
        <mxCell id="nJSs2wzzEc3q5zwMcev3-156" value="Solicitar cadastro de cliente/produto" style="whiteSpace=wrap;html=1;fillColor=#bac8d3;strokeColor=#23445d;" vertex="1" parent="1">
          <mxGeometry x="2150" y="370" width="120" height="60" as="geometry" />
        </mxCell>
        <mxCell id="nJSs2wzzEc3q5zwMcev3-163" value="" style="edgeStyle=orthogonalEdgeStyle;rounded=0;orthogonalLoop=1;jettySize=auto;html=1;" edge="1" parent="1" source="nJSs2wzzEc3q5zwMcev3-159" target="nJSs2wzzEc3q5zwMcev3-162">
          <mxGeometry relative="1" as="geometry" />
        </mxCell>
        <mxCell id="nJSs2wzzEc3q5zwMcev3-159" value="Fazer um checklist no produto" style="whiteSpace=wrap;html=1;fillColor=#bac8d3;strokeColor=#23445d;" vertex="1" parent="1">
          <mxGeometry x="1952.5" y="490" width="120" height="60" as="geometry" />
        </mxCell>
        <mxCell id="nJSs2wzzEc3q5zwMcev3-165" value="" style="edgeStyle=orthogonalEdgeStyle;rounded=0;orthogonalLoop=1;jettySize=auto;html=1;" edge="1" parent="1" source="nJSs2wzzEc3q5zwMcev3-162" target="nJSs2wzzEc3q5zwMcev3-164">
          <mxGeometry relative="1" as="geometry" />
        </mxCell>
        <mxCell id="nJSs2wzzEc3q5zwMcev3-162" value="Pedido concluído" style="whiteSpace=wrap;html=1;fillColor=#bac8d3;strokeColor=#23445d;" vertex="1" parent="1">
          <mxGeometry x="1952.5" y="590" width="120" height="60" as="geometry" />
        </mxCell>
        <mxCell id="nJSs2wzzEc3q5zwMcev3-164" value="Fim" style="ellipse;whiteSpace=wrap;html=1;fillColor=#bac8d3;strokeColor=#23445d;" vertex="1" parent="1">
          <mxGeometry x="1958.75" y="690" width="107.5" height="60" as="geometry" />
        </mxCell>
        <mxCell id="nJSs2wzzEc3q5zwMcev3-167" value="&lt;h1&gt;Verificar Tempo de Produção e Média Diária&lt;/h1&gt;" style="text;html=1;align=center;verticalAlign=middle;resizable=0;points=[];autosize=1;strokeColor=none;fillColor=none;" vertex="1" parent="1">
          <mxGeometry x="2311" width="520" height="70" as="geometry" />
        </mxCell>
        <mxCell id="nJSs2wzzEc3q5zwMcev3-170" value="" style="edgeStyle=orthogonalEdgeStyle;rounded=0;orthogonalLoop=1;jettySize=auto;html=1;" edge="1" parent="1" source="nJSs2wzzEc3q5zwMcev3-168" target="nJSs2wzzEc3q5zwMcev3-169">
          <mxGeometry relative="1" as="geometry" />
        </mxCell>
        <mxCell id="nJSs2wzzEc3q5zwMcev3-168" value="Início" style="ellipse;whiteSpace=wrap;html=1;fillColor=#cce5ff;strokeColor=#36393d;" vertex="1" parent="1">
          <mxGeometry x="2487" y="70" width="120" height="60" as="geometry" />
        </mxCell>
        <mxCell id="nJSs2wzzEc3q5zwMcev3-172" value="" style="edgeStyle=orthogonalEdgeStyle;rounded=0;orthogonalLoop=1;jettySize=auto;html=1;" edge="1" parent="1" source="nJSs2wzzEc3q5zwMcev3-169" target="nJSs2wzzEc3q5zwMcev3-171">
          <mxGeometry relative="1" as="geometry" />
        </mxCell>
        <mxCell id="nJSs2wzzEc3q5zwMcev3-169" value="Ir para tela tempo de produção" style="whiteSpace=wrap;html=1;fillColor=#cce5ff;strokeColor=#36393d;" vertex="1" parent="1">
          <mxGeometry x="2487" y="170" width="120" height="60" as="geometry" />
        </mxCell>
        <mxCell id="nJSs2wzzEc3q5zwMcev3-176" value="" style="edgeStyle=orthogonalEdgeStyle;rounded=0;orthogonalLoop=1;jettySize=auto;html=1;" edge="1" parent="1" source="nJSs2wzzEc3q5zwMcev3-171" target="nJSs2wzzEc3q5zwMcev3-175">
          <mxGeometry relative="1" as="geometry" />
        </mxCell>
        <mxCell id="nJSs2wzzEc3q5zwMcev3-171" value="Pesquisar na barra de pesquisa cliente" style="whiteSpace=wrap;html=1;fillColor=#cce5ff;strokeColor=#36393d;" vertex="1" parent="1">
          <mxGeometry x="2487" y="270" width="120" height="60" as="geometry" />
        </mxCell>
        <mxCell id="nJSs2wzzEc3q5zwMcev3-173" value="* o produto" style="text;html=1;align=center;verticalAlign=middle;resizable=0;points=[];autosize=1;strokeColor=none;fillColor=none;" vertex="1" parent="1">
          <mxGeometry x="2607" y="285" width="80" height="30" as="geometry" />
        </mxCell>
        <mxCell id="nJSs2wzzEc3q5zwMcev3-178" value="" style="edgeStyle=orthogonalEdgeStyle;rounded=0;orthogonalLoop=1;jettySize=auto;html=1;" edge="1" parent="1" source="nJSs2wzzEc3q5zwMcev3-175" target="nJSs2wzzEc3q5zwMcev3-177">
          <mxGeometry relative="1" as="geometry" />
        </mxCell>
        <mxCell id="nJSs2wzzEc3q5zwMcev3-179" value="Não" style="edgeLabel;html=1;align=center;verticalAlign=middle;resizable=0;points=[];" vertex="1" connectable="0" parent="nJSs2wzzEc3q5zwMcev3-178">
          <mxGeometry x="-0.3208" y="-1" relative="1" as="geometry">
            <mxPoint as="offset" />
          </mxGeometry>
        </mxCell>
        <mxCell id="nJSs2wzzEc3q5zwMcev3-181" value="" style="edgeStyle=orthogonalEdgeStyle;rounded=0;orthogonalLoop=1;jettySize=auto;html=1;" edge="1" parent="1" source="nJSs2wzzEc3q5zwMcev3-175" target="nJSs2wzzEc3q5zwMcev3-180">
          <mxGeometry relative="1" as="geometry" />
        </mxCell>
        <mxCell id="nJSs2wzzEc3q5zwMcev3-175" value="Foi encontrado&amp;nbsp;" style="rhombus;whiteSpace=wrap;html=1;fillColor=#cce5ff;strokeColor=#36393d;" vertex="1" parent="1">
          <mxGeometry x="2487" y="370" width="120" height="80" as="geometry" />
        </mxCell>
        <mxCell id="nJSs2wzzEc3q5zwMcev3-177" value="Ir para tela cadastrar cliente" style="whiteSpace=wrap;html=1;fillColor=#cce5ff;strokeColor=#36393d;" vertex="1" parent="1">
          <mxGeometry x="2660" y="380" width="120" height="60" as="geometry" />
        </mxCell>
        <mxCell id="nJSs2wzzEc3q5zwMcev3-183" value="" style="edgeStyle=orthogonalEdgeStyle;rounded=0;orthogonalLoop=1;jettySize=auto;html=1;" edge="1" parent="1" source="nJSs2wzzEc3q5zwMcev3-180" target="nJSs2wzzEc3q5zwMcev3-182">
          <mxGeometry relative="1" as="geometry" />
        </mxCell>
        <mxCell id="nJSs2wzzEc3q5zwMcev3-180" value="Digitar a média diária e tempo" style="whiteSpace=wrap;html=1;fillColor=#cce5ff;strokeColor=#36393d;" vertex="1" parent="1">
          <mxGeometry x="2487" y="495" width="120" height="60" as="geometry" />
        </mxCell>
        <mxCell id="nJSs2wzzEc3q5zwMcev3-185" value="" style="edgeStyle=orthogonalEdgeStyle;rounded=0;orthogonalLoop=1;jettySize=auto;html=1;" edge="1" parent="1" source="nJSs2wzzEc3q5zwMcev3-182" target="nJSs2wzzEc3q5zwMcev3-184">
          <mxGeometry relative="1" as="geometry" />
        </mxCell>
        <mxCell id="nJSs2wzzEc3q5zwMcev3-186" value="Não" style="edgeLabel;html=1;align=center;verticalAlign=middle;resizable=0;points=[];" vertex="1" connectable="0" parent="nJSs2wzzEc3q5zwMcev3-185">
          <mxGeometry y="-1" relative="1" as="geometry">
            <mxPoint as="offset" />
          </mxGeometry>
        </mxCell>
        <mxCell id="nJSs2wzzEc3q5zwMcev3-190" value="" style="edgeStyle=orthogonalEdgeStyle;rounded=0;orthogonalLoop=1;jettySize=auto;html=1;" edge="1" parent="1" source="nJSs2wzzEc3q5zwMcev3-182" target="nJSs2wzzEc3q5zwMcev3-189">
          <mxGeometry relative="1" as="geometry" />
        </mxCell>
        <mxCell id="nJSs2wzzEc3q5zwMcev3-191" value="Sim" style="edgeLabel;html=1;align=center;verticalAlign=middle;resizable=0;points=[];" vertex="1" connectable="0" parent="nJSs2wzzEc3q5zwMcev3-190">
          <mxGeometry x="-0.1312" y="1" relative="1" as="geometry">
            <mxPoint as="offset" />
          </mxGeometry>
        </mxCell>
        <mxCell id="nJSs2wzzEc3q5zwMcev3-182" value="Bateu meta" style="whiteSpace=wrap;html=1;fillColor=#cce5ff;strokeColor=#36393d;" vertex="1" parent="1">
          <mxGeometry x="2487" y="600.25" width="120" height="60" as="geometry" />
        </mxCell>
        <mxCell id="nJSs2wzzEc3q5zwMcev3-188" value="" style="edgeStyle=orthogonalEdgeStyle;rounded=0;orthogonalLoop=1;jettySize=auto;html=1;" edge="1" parent="1" source="nJSs2wzzEc3q5zwMcev3-184" target="nJSs2wzzEc3q5zwMcev3-187">
          <mxGeometry relative="1" as="geometry" />
        </mxCell>
        <mxCell id="nJSs2wzzEc3q5zwMcev3-184" value="Mostrar na tela quantidade de produtos faltantes" style="whiteSpace=wrap;html=1;fillColor=#cce5ff;strokeColor=#36393d;" vertex="1" parent="1">
          <mxGeometry x="2670" y="600.25" width="120" height="60" as="geometry" />
        </mxCell>
        <mxCell id="nJSs2wzzEc3q5zwMcev3-196" style="edgeStyle=orthogonalEdgeStyle;rounded=0;orthogonalLoop=1;jettySize=auto;html=1;exitX=0.5;exitY=1;exitDx=0;exitDy=0;entryX=1;entryY=0.5;entryDx=0;entryDy=0;" edge="1" parent="1" source="nJSs2wzzEc3q5zwMcev3-187" target="nJSs2wzzEc3q5zwMcev3-194">
          <mxGeometry relative="1" as="geometry" />
        </mxCell>
        <mxCell id="nJSs2wzzEc3q5zwMcev3-187" value="Na próxima seção indicar com aviso na tela inicial a falta de demanda" style="whiteSpace=wrap;html=1;fillColor=#cce5ff;strokeColor=#36393d;" vertex="1" parent="1">
          <mxGeometry x="2831" y="582.68" width="149" height="95.13" as="geometry" />
        </mxCell>
        <mxCell id="nJSs2wzzEc3q5zwMcev3-193" value="" style="edgeStyle=orthogonalEdgeStyle;rounded=0;orthogonalLoop=1;jettySize=auto;html=1;" edge="1" parent="1" source="nJSs2wzzEc3q5zwMcev3-189" target="nJSs2wzzEc3q5zwMcev3-192">
          <mxGeometry relative="1" as="geometry" />
        </mxCell>
        <mxCell id="nJSs2wzzEc3q5zwMcev3-189" value="Mostrar na tela &quot;meta batida&quot;" style="whiteSpace=wrap;html=1;fillColor=#cce5ff;strokeColor=#36393d;" vertex="1" parent="1">
          <mxGeometry x="2481" y="720" width="133" height="60" as="geometry" />
        </mxCell>
        <mxCell id="nJSs2wzzEc3q5zwMcev3-195" value="" style="edgeStyle=orthogonalEdgeStyle;rounded=0;orthogonalLoop=1;jettySize=auto;html=1;" edge="1" parent="1" source="nJSs2wzzEc3q5zwMcev3-192" target="nJSs2wzzEc3q5zwMcev3-194">
          <mxGeometry relative="1" as="geometry" />
        </mxCell>
        <mxCell id="nJSs2wzzEc3q5zwMcev3-192" value="Salvar progresso" style="whiteSpace=wrap;html=1;fillColor=#cce5ff;strokeColor=#36393d;" vertex="1" parent="1">
          <mxGeometry x="2487.5" y="820" width="120" height="60" as="geometry" />
        </mxCell>
        <mxCell id="nJSs2wzzEc3q5zwMcev3-194" value="Fim" style="ellipse;whiteSpace=wrap;html=1;fillColor=#cce5ff;strokeColor=#36393d;" vertex="1" parent="1">
          <mxGeometry x="2640" y="820" width="100" height="60" as="geometry" />
        </mxCell>
        <mxCell id="nJSs2wzzEc3q5zwMcev3-198" value="&lt;h1&gt;Cadastrar Produto&lt;/h1&gt;" style="text;html=1;align=center;verticalAlign=middle;resizable=0;points=[];autosize=1;strokeColor=none;fillColor=none;" vertex="1" parent="1">
          <mxGeometry x="3100" width="230" height="70" as="geometry" />
        </mxCell>
        <mxCell id="nJSs2wzzEc3q5zwMcev3-201" value="" style="edgeStyle=orthogonalEdgeStyle;rounded=0;orthogonalLoop=1;jettySize=auto;html=1;" edge="1" parent="1" source="nJSs2wzzEc3q5zwMcev3-199" target="nJSs2wzzEc3q5zwMcev3-200">
          <mxGeometry relative="1" as="geometry" />
        </mxCell>
        <mxCell id="nJSs2wzzEc3q5zwMcev3-199" value="Início" style="ellipse;whiteSpace=wrap;html=1;fillColor=#d0cee2;strokeColor=#56517e;" vertex="1" parent="1">
          <mxGeometry x="3157.5" y="70" width="115" height="60" as="geometry" />
        </mxCell>
        <mxCell id="nJSs2wzzEc3q5zwMcev3-203" value="" style="edgeStyle=orthogonalEdgeStyle;rounded=0;orthogonalLoop=1;jettySize=auto;html=1;" edge="1" parent="1" source="nJSs2wzzEc3q5zwMcev3-200" target="nJSs2wzzEc3q5zwMcev3-202">
          <mxGeometry relative="1" as="geometry" />
        </mxCell>
        <mxCell id="nJSs2wzzEc3q5zwMcev3-200" value="Na tela inicial ir para produto" style="whiteSpace=wrap;html=1;fillColor=#d0cee2;strokeColor=#56517e;" vertex="1" parent="1">
          <mxGeometry x="3155" y="170" width="120" height="60" as="geometry" />
        </mxCell>
        <mxCell id="nJSs2wzzEc3q5zwMcev3-205" value="" style="edgeStyle=orthogonalEdgeStyle;rounded=0;orthogonalLoop=1;jettySize=auto;html=1;" edge="1" parent="1" source="nJSs2wzzEc3q5zwMcev3-202" target="nJSs2wzzEc3q5zwMcev3-204">
          <mxGeometry relative="1" as="geometry" />
        </mxCell>
        <mxCell id="nJSs2wzzEc3q5zwMcev3-202" value="Opção cadastrar produto" style="whiteSpace=wrap;html=1;fillColor=#d0cee2;strokeColor=#56517e;" vertex="1" parent="1">
          <mxGeometry x="3155" y="270" width="120" height="60" as="geometry" />
        </mxCell>
        <mxCell id="nJSs2wzzEc3q5zwMcev3-210" value="" style="edgeStyle=orthogonalEdgeStyle;rounded=0;orthogonalLoop=1;jettySize=auto;html=1;" edge="1" parent="1" source="nJSs2wzzEc3q5zwMcev3-204" target="nJSs2wzzEc3q5zwMcev3-209">
          <mxGeometry relative="1" as="geometry" />
        </mxCell>
        <mxCell id="nJSs2wzzEc3q5zwMcev3-204" value="Digitar informações dos produtos" style="whiteSpace=wrap;html=1;fillColor=#d0cee2;strokeColor=#56517e;" vertex="1" parent="1">
          <mxGeometry x="3155" y="380" width="120" height="60" as="geometry" />
        </mxCell>
        <mxCell id="nJSs2wzzEc3q5zwMcev3-206" value="* quantidade, tipo (camiseta) estampa, cor" style="text;html=1;align=center;verticalAlign=middle;resizable=0;points=[];autosize=1;strokeColor=none;fillColor=none;" vertex="1" parent="1">
          <mxGeometry x="3270" y="380" width="250" height="30" as="geometry" />
        </mxCell>
        <mxCell id="nJSs2wzzEc3q5zwMcev3-212" value="" style="edgeStyle=orthogonalEdgeStyle;rounded=0;orthogonalLoop=1;jettySize=auto;html=1;" edge="1" parent="1" source="nJSs2wzzEc3q5zwMcev3-209" target="nJSs2wzzEc3q5zwMcev3-211">
          <mxGeometry relative="1" as="geometry" />
        </mxCell>
        <mxCell id="nJSs2wzzEc3q5zwMcev3-213" value="Sim" style="edgeLabel;html=1;align=center;verticalAlign=middle;resizable=0;points=[];" vertex="1" connectable="0" parent="nJSs2wzzEc3q5zwMcev3-212">
          <mxGeometry x="-0.32" y="-2" relative="1" as="geometry">
            <mxPoint as="offset" />
          </mxGeometry>
        </mxCell>
        <mxCell id="nJSs2wzzEc3q5zwMcev3-216" style="edgeStyle=orthogonalEdgeStyle;rounded=0;orthogonalLoop=1;jettySize=auto;html=1;exitX=0;exitY=0.5;exitDx=0;exitDy=0;entryX=0;entryY=0.5;entryDx=0;entryDy=0;" edge="1" parent="1" source="nJSs2wzzEc3q5zwMcev3-209" target="nJSs2wzzEc3q5zwMcev3-204">
          <mxGeometry relative="1" as="geometry" />
        </mxCell>
        <mxCell id="nJSs2wzzEc3q5zwMcev3-217" value="Não" style="edgeLabel;html=1;align=center;verticalAlign=middle;resizable=0;points=[];" vertex="1" connectable="0" parent="nJSs2wzzEc3q5zwMcev3-216">
          <mxGeometry x="-0.0424" y="1" relative="1" as="geometry">
            <mxPoint as="offset" />
          </mxGeometry>
        </mxCell>
        <mxCell id="nJSs2wzzEc3q5zwMcev3-209" value="Informações válidas" style="rhombus;whiteSpace=wrap;html=1;fillColor=#d0cee2;strokeColor=#56517e;" vertex="1" parent="1">
          <mxGeometry x="3145" y="480" width="140" height="90" as="geometry" />
        </mxCell>
        <mxCell id="nJSs2wzzEc3q5zwMcev3-215" value="" style="edgeStyle=orthogonalEdgeStyle;rounded=0;orthogonalLoop=1;jettySize=auto;html=1;" edge="1" parent="1" source="nJSs2wzzEc3q5zwMcev3-211" target="nJSs2wzzEc3q5zwMcev3-214">
          <mxGeometry relative="1" as="geometry" />
        </mxCell>
        <mxCell id="nJSs2wzzEc3q5zwMcev3-211" value="Clicar em salvar" style="whiteSpace=wrap;html=1;fillColor=#d0cee2;strokeColor=#56517e;" vertex="1" parent="1">
          <mxGeometry x="3155" y="620" width="120" height="60" as="geometry" />
        </mxCell>
        <mxCell id="nJSs2wzzEc3q5zwMcev3-214" value="Fim" style="ellipse;whiteSpace=wrap;html=1;fillColor=#d0cee2;strokeColor=#56517e;" vertex="1" parent="1">
          <mxGeometry x="3158.75" y="709.5" width="112.5" height="60.5" as="geometry" />
        </mxCell>
      </root>
    </mxGraphModel>
  </diagram>
</mxfile>
